<svg xmlns="http://www.w3.org/2000/svg" xmlns:xlink="http://www.w3.org/1999/xlink" width="500" zoomAndPan="magnify" viewBox="0 0 375 374.999991" height="500" preserveAspectRatio="xMidYMid meet" version="1.0"><defs><clipPath id="e4084286bb"><path d="M 53.097656 127 L 321.597656 127 L 321.597656 311.765625 L 53.097656 311.765625 Z M 53.097656 127 " clip-rule="nonzero"/></clipPath><clipPath id="d7352b647b"><path d="M 201.40625 121.378906 L 219.984375 121.378906 L 219.984375 139.957031 L 201.40625 139.957031 Z M 201.40625 121.378906 " clip-rule="nonzero"/></clipPath><clipPath id="12e32a5f36"><path d="M 210.695312 121.378906 C 205.566406 121.378906 201.40625 125.539062 201.40625 130.667969 C 201.40625 135.796875 205.566406 139.957031 210.695312 139.957031 C 215.824219 139.957031 219.984375 135.796875 219.984375 130.667969 C 219.984375 125.539062 215.824219 121.378906 210.695312 121.378906 Z M 210.695312 121.378906 " clip-rule="nonzero"/></clipPath></defs><path fill="#047aff" d="M 221.21875 117.824219 C 217.378906 117.113281 207.109375 115.589844 199.847656 117.6875 C 199.9375 115.328125 199.574219 124.699219 200.484375 102.277344 C 200.496094 102.007812 200.640625 101.640625 200.921875 101.765625 L 201.066406 101.753906 C 200.820312 101.777344 204.378906 101.453125 220.59375 99.992188 C 221.238281 99.929688 221.300781 111.429688 221.21875 117.824219 Z M 221.21875 117.824219 " fill-opacity="1" fill-rule="nonzero"/><path fill="#047aff" d="M 263.578125 153.0625 C 260.46875 154.34375 257.367188 155.636719 254.257812 156.921875 C 253.257812 157.34375 251.878906 158.175781 250.792969 158.378906 C 250.753906 158.386719 250.382812 158.449219 250.34375 158.433594 C 249.398438 158.472656 248.203125 158.046875 247.296875 157.878906 C 233.136719 155.417969 223.566406 153.730469 219.023438 152.949219 C 218.699219 152.625 218.550781 152.425781 217.867188 151.875 C 217.757812 151.808594 216.546875 150.660156 212.882812 149.289062 C 200.070312 144.4375 186.90625 140.863281 173.257812 141.738281 C 173.152344 141.738281 171.652344 141.851562 170.554688 142.050781 C 169.941406 142.167969 168.328125 143.042969 167.765625 142.9375 L 167.734375 142.9375 C 166.851562 142.710938 167.871094 141.707031 168.214844 141.1875 C 168.765625 140.332031 169.328125 139.488281 169.929688 138.652344 C 174.832031 131.824219 181.207031 125.726562 188.855469 122.285156 C 191.515625 121.085938 194.378906 120.09375 197.34375 119.335938 C 197.34375 119.640625 197.84375 120.089844 198.402344 119.867188 C 206.621094 116.277344 222.238281 119.617188 222.394531 119.648438 C 222.808594 119.742188 223.214844 119.480469 223.308594 119.074219 C 223.351562 119.082031 223.390625 119.09375 223.433594 119.105469 C 231.25 121.1875 237.890625 125.355469 244.042969 130.34375 C 250.023438 135.285156 255.558594 140.84375 260.15625 147.171875 C 261.394531 148.890625 262.632812 150.675781 263.441406 152.730469 C 263.496094 152.832031 263.535156 152.949219 263.578125 153.0625 Z M 263.578125 153.0625 " fill-opacity="1" fill-rule="nonzero"/><path fill="#047aff" d="M 267.777344 210.449219 C 267.769531 210.449219 267.757812 210.449219 267.75 210.449219 C 267.320312 210.4375 266.976562 210.082031 266.988281 209.648438 C 266.992188 209.390625 267.121094 209.164062 267.316406 209.027344 C 267.402344 208.933594 267.53125 208.761719 267.707031 208.535156 C 274.382812 199.957031 281.417969 197.195312 288.601562 200.320312 C 289 200.492188 289.179688 200.949219 289.007812 201.347656 C 288.835938 201.742188 288.375 201.925781 287.980469 201.753906 C 281.527344 198.949219 275.121094 201.550781 268.9375 209.496094 C 268.375 210.21875 268.195312 210.449219 267.777344 210.449219 Z M 267.777344 210.449219 " fill-opacity="1" fill-rule="nonzero"/><path fill="#047aff" d="M 271.703125 213.742188 C 271.363281 213.476562 271.304688 212.984375 271.570312 212.644531 C 273.632812 210.003906 275.589844 208.214844 277.730469 207.011719 C 280.308594 205.5625 283.179688 205.074219 285.675781 205.644531 C 286.050781 205.480469 286.515625 205.683594 286.707031 205.972656 C 287.128906 206.617188 286.550781 207.496094 285.640625 207.25 C 283.449219 206.644531 280.847656 207.054688 278.496094 208.375 C 276.539062 209.472656 274.730469 211.136719 272.800781 213.609375 C 272.535156 213.945312 272.046875 214.007812 271.703125 213.742188 Z M 271.703125 213.742188 " fill-opacity="1" fill-rule="nonzero"/><path fill="#047aff" d="M 278 215.777344 C 277.625 215.558594 277.5 215.082031 277.71875 214.707031 C 279.085938 212.359375 281.890625 211 284.542969 211.402344 C 284.96875 211.46875 285.261719 211.867188 285.199219 212.292969 C 285.132812 212.71875 284.734375 213.011719 284.308594 212.949219 C 282.277344 212.636719 280.117188 213.6875 279.066406 215.496094 C 278.847656 215.871094 278.367188 215.992188 278 215.777344 Z M 278 215.777344 " fill-opacity="1" fill-rule="nonzero"/><path fill="#047aff" d="M 281.371094 216.234375 C 280.1875 217.527344 280.8125 219.691406 281.972656 220.035156 C 283.1875 220.394531 284.496094 218.609375 284.265625 217.429688 C 284.109375 216.625 283.261719 215.84375 282.367188 215.84375 C 281.855469 215.84375 281.332031 216.121094 281.101562 216.589844 " fill-opacity="1" fill-rule="nonzero"/><path fill="#047aff" d="M 230.296875 245.21875 C 230.585938 245.566406 231.019531 245.738281 231.441406 245.894531 C 235.125 247.253906 238.929688 248.285156 242.789062 248.976562 C 243.550781 249.109375 244.359375 249.230469 245.074219 248.929688 C 246.070312 248.515625 246.609375 247.417969 246.933594 246.367188 C 247.332031 245.085938 247.542969 243.742188 247.558594 242.398438 C 247.570312 241.347656 247.355469 240.925781 246.421875 240.429688 C 244.429688 239.371094 242.164062 239.007812 239.945312 238.664062 C 238.199219 238.390625 236.453125 238.113281 234.707031 237.847656 C 233.617188 237.679688 232.335938 237.3125 231.511719 238.277344 C 230.902344 238.996094 230.816406 240.308594 230.59375 241.191406 C 230.304688 242.316406 229.433594 244.167969 230.296875 245.21875 Z M 230.296875 245.21875 " fill-opacity="1" fill-rule="nonzero"/><path fill="#047aff" d="M 114.410156 290.613281 C 111.703125 288.550781 109.761719 287.546875 106.585938 288.269531 C 106.453125 288.300781 106.328125 288.332031 106.203125 288.371094 C 103.4375 281.601562 97.335938 276.273438 90.960938 272.773438 C 89.078125 271.742188 87.039062 270.730469 85.949219 268.855469 C 84.835938 266.945312 85 264.433594 86.050781 262.484375 C 87.925781 258.960938 92.34375 257.375 96.214844 258.105469 C 100.066406 258.824219 103.371094 261.472656 105.808594 264.632812 C 109.65625 269.667969 111.753906 276.335938 113.296875 282.648438 C 113.90625 285.210938 114.441406 287.957031 114.410156 290.613281 Z M 114.410156 290.613281 " fill-opacity="1" fill-rule="nonzero"/><path fill="#000000" d="M 120.414062 88.992188 C 121.570312 88.609375 120.242188 88.996094 124.410156 87.179688 C 147.617188 76.824219 174.703125 81.007812 198.066406 91.082031 C 198.121094 91.316406 198.1875 91.546875 198.277344 91.765625 C 198.789062 93.070312 201.5625 97.050781 200.878906 101.121094 C 200.847656 101.359375 200.921875 101.589844 201.066406 101.753906 L 202.316406 101.640625 C 202.367188 101.566406 202.398438 101.472656 202.417969 101.371094 C 203.265625 96.195312 199.6875 91.886719 199.539062 90.527344 C 199.476562 89.796875 199.953125 88.972656 200.691406 88.523438 C 201.671875 87.945312 203.070312 87.882812 204.199219 88.042969 C 204.578125 88.902344 205.449219 89.511719 206.265625 89.703125 C 206.378906 89.726562 206.492188 89.730469 206.601562 89.738281 C 206.613281 89.789062 206.636719 89.832031 206.644531 89.878906 C 206.726562 90.558594 206.289062 91.320312 205.601562 91.652344 C 204.945312 91.988281 204.082031 91.964844 203.28125 91.601562 C 202.898438 91.433594 202.449219 91.589844 202.261719 91.964844 C 202.074219 92.339844 202.210938 92.800781 202.585938 93.007812 C 203.34375 93.425781 204.011719 94.03125 204.550781 94.8125 C 205.332031 95.925781 205.726562 97.25 205.6875 98.542969 C 205.675781 98.980469 206.007812 99.335938 206.445312 99.359375 C 206.882812 99.378906 207.234375 99.035156 207.246094 98.597656 C 207.285156 97.375 207.011719 96.136719 206.464844 95.003906 C 206.550781 95.046875 206.636719 95.089844 206.722656 95.132812 C 207.710938 95.644531 208.722656 96.101562 209.710938 96.582031 C 210.78125 97.101562 211.652344 97.863281 212.84375 98.167969 C 213.890625 98.441406 215.023438 98.410156 216.023438 98.019531 C 215.914062 98.855469 215.929688 99.488281 216.097656 100.398438 L 217.660156 100.253906 C 217.382812 98.828125 217.535156 98.34375 217.839844 96.644531 C 219.015625 95.082031 219.328125 92.726562 218.832031 90.941406 C 218.800781 90.832031 218.753906 90.722656 218.714844 90.609375 C 219.335938 90.125 219.824219 89.691406 220.390625 88.976562 C 222.199219 86.695312 223.175781 82.914062 220.453125 81.648438 C 219.875 81.382812 219.230469 81.296875 218.601562 81.382812 C 218.429688 79.371094 216.554688 78.285156 214.8125 78.894531 C 214.371094 78.121094 213.621094 77.535156 212.742188 77.335938 C 211.898438 77.140625 211.011719 77.320312 210.300781 77.789062 C 209.796875 77.207031 209.042969 76.867188 208.261719 76.921875 C 206.269531 77.054688 204.679688 78.152344 203.453125 79.757812 C 170.179688 63.730469 137.324219 66.007812 113.167969 80.191406 C 110.671875 81.652344 110.480469 85.136719 112.324219 87.3125 C 114.261719 89.605469 117.75 89.878906 120.414062 88.992188 Z M 220.53125 83.953125 C 220.792969 85.0625 220.03125 86.921875 219.171875 88.003906 C 218.332031 89.058594 217.019531 90.113281 215.070312 90.929688 C 214.414062 91.207031 213.664062 91.464844 213.0625 91.253906 C 212.773438 91.15625 212.492188 90.828125 212.472656 90.511719 C 216.3125 87.1875 218.03125 83.609375 218.257812 83.117188 C 219.144531 82.6875 220.296875 82.972656 220.53125 83.953125 Z M 216.566406 80.546875 C 217.027344 80.910156 217.195312 81.675781 216.929688 82.210938 C 216.898438 82.273438 216.882812 82.339844 216.871094 82.40625 C 216.078125 84.167969 214.132812 86.945312 211.679688 89.128906 C 211.566406 89.15625 211.457031 89.199219 211.359375 89.28125 C 211.050781 89.542969 210.609375 89.65625 210.160156 89.511719 C 210.113281 89.496094 210.007812 89.394531 209.929688 89.320312 C 209.570312 88.996094 209.46875 88.917969 209.34375 88.632812 C 210.96875 86.914062 214.8125 82.644531 215.105469 80.5 C 215.542969 80.230469 216.160156 80.230469 216.566406 80.546875 Z M 213.597656 80.046875 C 213.582031 80.117188 213.5625 80.1875 213.570312 80.261719 C 213.640625 81.195312 210.757812 84.890625 207.996094 87.789062 C 207.730469 87.921875 207.6875 87.996094 207.492188 88.085938 C 207.46875 88.058594 207.441406 88.035156 207.417969 88.007812 C 207.324219 87.894531 207.222656 87.785156 207.113281 87.679688 C 206.695312 87.285156 206.234375 86.96875 205.488281 86.726562 C 205.488281 86.703125 205.488281 86.679688 205.492188 86.660156 C 205.53125 86.570312 205.585938 86.429688 205.609375 86.257812 C 205.8125 84.738281 209.402344 80.933594 210.589844 79.785156 C 210.683594 79.691406 210.742188 79.574219 210.78125 79.453125 C 211.597656 78.40625 213.230469 78.710938 213.597656 80.046875 Z M 208.375 78.480469 C 208.6875 78.460938 209.027344 78.660156 209.214844 78.945312 C 208.152344 80.003906 204.835938 83.433594 204.128906 85.695312 C 203.851562 85.851562 203.398438 85.710938 203.28125 85.585938 C 203.226562 85.53125 203.09375 85.304688 203.050781 85.1875 C 202.925781 84.875 202.953125 84.472656 202.984375 84.183594 C 202.988281 84.175781 203.035156 83.996094 203.035156 83.988281 C 203.265625 83.558594 203.457031 82.675781 204.152344 81.5 C 205.058594 79.929688 206.542969 78.601562 208.375 78.480469 Z M 208.375 78.480469 " fill-opacity="1" fill-rule="nonzero"/><g clip-path="url(#e4084286bb)"><path fill="#000000" d="M 321.191406 166.699219 C 320.855469 165.417969 320.054688 164.3125 319.234375 163.289062 C 312.832031 155.457031 307.855469 146.390625 302.441406 138.019531 C 302.234375 137.703125 301.839844 137.578125 301.496094 137.714844 L 301.203125 137.832031 L 239.972656 127.214844 C 241.113281 128.066406 241.707031 128.449219 244.042969 130.34375 C 250.023438 135.285156 255.558594 140.84375 260.15625 147.171875 C 261.394531 148.890625 262.632812 150.675781 263.441406 152.730469 L 251.042969 157.617188 L 217.855469 151.863281 C 215.695312 150.199219 213.113281 149.339844 209.695312 148.117188 C 197.855469 143.871094 185.75 140.9375 173.257812 141.738281 L 173.253906 141.742188 C 172.367188 141.800781 171.4375 141.886719 170.554688 142.050781 C 169.945312 142.164062 168.332031 143.039062 167.769531 142.9375 C 164.007812 145.417969 160.363281 147.765625 157.660156 151.808594 C 152.132812 160.054688 152.183594 170.753906 147.183594 179.3125 C 145.867188 181.566406 132.5625 206.441406 131.207031 205.722656 C 100.757812 189.714844 91.015625 184.585938 88.910156 183.484375 C 87.410156 182.691406 85.601562 181.097656 84.398438 182.628906 C 84.050781 183.070312 83.714844 183.53125 83.390625 184.007812 C 80.535156 181.652344 79.933594 180.660156 79.253906 179.652344 C 78.601562 178.6875 77.929688 177.6875 76.851562 176.871094 C 74.28125 174.921875 71.460938 175.144531 69.246094 177.539062 C 67.886719 179.011719 66.34375 182.121094 65.289062 184.21875 C 63.074219 188.621094 62.347656 189.878906 58.402344 195.003906 C 57.859375 195.6875 58.148438 195.386719 57.167969 196.527344 C 55.539062 198.421875 53.078125 201.289062 53.515625 203.945312 C 53.960938 206.644531 57.757812 208.675781 61.140625 206.808594 C 63.859375 205.308594 65.003906 202.101562 71.617188 196.605469 C 72.246094 196.082031 72.820312 195.640625 73.515625 195.542969 C 74.5 195.402344 75.597656 195.949219 76.4375 196.480469 C 75.175781 198.667969 73.921875 200.855469 72.667969 203.042969 C 73.105469 203.042969 73.460938 203.40625 73.859375 203.585938 C 81.214844 207.796875 88.59375 211.945312 95.90625 216.222656 C 100.96875 219.171875 106.28125 221.683594 111.375 224.542969 C 116.433594 227.386719 120.996094 230.808594 126.503906 232.777344 C 141.449219 238.117188 155.628906 228.648438 164.242188 216.648438 C 165.039062 215.539062 165.792969 214.402344 166.527344 213.25 C 166.007812 230.371094 165.960938 229.4375 166.183594 230.855469 C 166.292969 231.550781 166.472656 232.359375 166.976562 233.070312 C 167.753906 234.144531 168.804688 234.449219 169.828125 234.742188 C 171.1875 235.132812 171.421875 235.339844 172.925781 235.753906 C 173.03125 235.78125 188.121094 239.960938 188.4375 240.050781 C 188.664062 244.066406 188.882812 248.082031 189.074219 252.097656 C 188.878906 258.613281 189.53125 265.414062 189.632812 271.980469 C 189.734375 279.089844 189.847656 286.191406 189.960938 293.292969 L 191.445312 293.292969 C 191.640625 295.441406 191.652344 297.601562 191.460938 299.734375 C 191.28125 301.691406 190.292969 303.40625 190.417969 305.710938 C 190.59375 308.9375 192.539062 311.023438 195.78125 311.230469 C 198.777344 311.417969 204.050781 309.710938 208.117188 309.097656 C 210.867188 308.683594 213.753906 308.625 216.574219 308.542969 C 218.589844 308.484375 223.585938 309.140625 225.691406 306.707031 C 227.484375 304.636719 226.585938 300.339844 223.007812 298.875 C 220.113281 297.691406 217.148438 298.886719 208.628906 297.183594 C 207.835938 297.023438 207.136719 296.855469 206.617188 296.371094 C 205.828125 295.640625 205.546875 294.316406 205.425781 293.292969 L 217.179688 293.292969 C 217.179688 293.292969 217.730469 273.097656 218.402344 248.359375 C 224.539062 250.058594 244.871094 255.695312 245.390625 255.832031 C 246.015625 256.007812 246.707031 256.25 247.386719 256.421875 C 251.167969 257.390625 254.640625 255.316406 257.570312 253.363281 C 259.714844 251.9375 299.808594 227.484375 299.910156 227.425781 C 300.898438 226.859375 301.921875 226.269531 302.511719 225.203125 C 303.289062 223.789062 303.097656 222.242188 303.085938 220.863281 C 303.085938 220.746094 302.707031 179.738281 302.703125 179.621094 C 320.78125 170.414062 319.875 170.929688 320.117188 170.734375 C 321.191406 169.734375 321.585938 168.234375 321.191406 166.699219 Z M 73.292969 193.992188 C 72.199219 194.148438 71.375 194.773438 70.621094 195.398438 C 66.28125 199.003906 63.28125 202.710938 63.179688 202.820312 C 62.308594 203.855469 61.484375 204.832031 60.390625 205.4375 C 57.964844 206.773438 55.328125 205.339844 55.054688 203.691406 C 54.738281 201.757812 57 199.121094 58.351562 197.546875 C 59.621094 196.066406 62.679688 192.09375 64.296875 189.390625 C 66.417969 185.839844 68.570312 180.570312 70.390625 178.601562 C 71.976562 176.886719 73.882812 176.578125 75.910156 178.117188 C 77.464844 179.296875 78.074219 181.078125 79.566406 182.609375 C 80.5 183.574219 81.496094 184.480469 82.539062 185.332031 C 80.765625 188.21875 79.246094 191.601562 77.214844 195.121094 C 77.195312 195.109375 74.664062 193.800781 73.292969 193.992188 Z M 247.128906 186.582031 C 246.816406 189.289062 246.765625 189.714844 246.785156 190.503906 C 246.800781 191.308594 246.714844 191.597656 246.535156 192.117188 C 245.511719 195.03125 243.507812 196.027344 241.855469 195.808594 C 240.210938 195.597656 220.070312 191.039062 219.964844 191.015625 C 220.472656 172.421875 220.84375 158.769531 220.84375 158.761719 C 220.886719 157.066406 220.054688 155.273438 218.875 153.636719 L 250.273438 159.078125 C 250.164062 159.953125 247.117188 186.683594 247.128906 186.582031 Z M 203.335938 281.980469 L 202.722656 160.046875 C 202.710938 159.597656 203.078125 159.253906 203.488281 159.253906 C 203.90625 159.253906 204.242188 159.609375 204.253906 160.035156 L 204.867188 281.96875 C 204.867188 282.394531 204.53125 282.75 204.101562 282.75 C 203.683594 282.75 203.335938 282.40625 203.335938 281.980469 Z M 180.441406 178.332031 C 180.5625 178.75 180.339844 179.1875 179.941406 179.3125 C 179.574219 179.453125 179.113281 179.234375 178.984375 178.800781 C 176.953125 172.234375 176.972656 165 179.023438 158.429688 C 179.15625 158.023438 179.585938 157.792969 179.992188 157.917969 C 180.390625 158.054688 180.617188 158.492188 180.484375 158.910156 C 178.523438 165.164062 178.515625 172.066406 180.441406 178.332031 Z M 173.34375 234.246094 C 171.925781 233.855469 171.675781 233.644531 170.257812 233.238281 C 169.386719 232.988281 168.699219 232.789062 168.246094 232.160156 C 167.445312 231.03125 167.597656 228.398438 167.660156 227.082031 C 167.71875 225.847656 167.632812 228.300781 168.167969 210.589844 C 172.621094 203.074219 175.042969 197.097656 181.730469 184.113281 C 181.757812 184.121094 181.859375 184.144531 181.902344 184.152344 C 183.351562 188.226562 184.945312 189.597656 185.738281 191.867188 C 186.1875 193.179688 186.265625 194.585938 186.308594 195.984375 C 186.648438 210.109375 187.546875 224.257812 188.347656 238.402344 C 186.808594 237.972656 173.476562 234.28125 173.34375 234.246094 Z M 205.554688 297.519531 C 206.371094 298.277344 207.371094 298.527344 208.324219 298.71875 C 213.800781 299.8125 218.546875 299.800781 218.667969 299.808594 C 220.003906 299.832031 221.265625 299.851562 222.417969 300.324219 C 225.003906 301.382812 225.609375 304.417969 224.511719 305.683594 C 223.257812 307.136719 219.859375 307.050781 217.828125 306.992188 C 215.925781 306.945312 210.960938 307.085938 207.886719 307.550781 C 203.910156 308.148438 198.503906 309.839844 195.878906 309.671875 C 193.445312 309.515625 192.109375 308.082031 191.976562 305.628906 C 191.867188 303.660156 192.820312 301.996094 193.015625 299.875 C 193.210938 297.695312 193.203125 295.488281 193.011719 293.292969 L 203.855469 293.292969 C 204.023438 294.835938 204.421875 296.464844 205.554688 297.519531 Z M 301.527344 220.878906 C 301.535156 222.140625 301.707031 223.425781 301.144531 224.445312 C 300.664062 225.320312 299.511719 225.820312 298.449219 226.472656 C 280.949219 237.199219 259.199219 250.402344 256.707031 252.058594 C 255.164062 253.085938 253.699219 254.050781 251.925781 254.628906 C 251.769531 251.585938 251.890625 213.425781 251.953125 198.632812 C 251.957031 198.199219 251.609375 197.847656 251.175781 197.847656 C 251.175781 197.847656 251.175781 197.847656 251.171875 197.847656 C 250.746094 197.847656 250.394531 198.195312 250.394531 198.625 C 250.394531 198.625 250.335938 212.6875 250.304688 226.761719 C 250.292969 232.289062 250.207031 253.421875 250.460938 254.988281 C 248.390625 255.300781 247.5 254.804688 245.800781 254.324219 C 245.210938 254.167969 244.304688 253.738281 243.507812 253.695312 C 240.71875 252.917969 221.25 247.523438 218.445312 246.746094 C 218.933594 228.945312 219.476562 209.003906 219.921875 192.609375 C 226.480469 194.058594 228.882812 194.535156 235.417969 196.089844 C 237.039062 196.484375 239.964844 197.179688 241.75 197.371094 C 244.144531 197.675781 246.941406 196.175781 248.1875 192.101562 C 248.351562 191.554688 248.367188 190.945312 248.34375 190.367188 C 248.332031 189.699219 251.582031 161.328125 251.59375 161.21875 C 264.355469 187.878906 262.144531 183.222656 264.523438 188.207031 C 265.160156 189.546875 265.304688 190.125 265.898438 191.375 C 267.519531 194.800781 269.808594 196.289062 275.382812 193.863281 C 277.265625 193.042969 279.285156 191.84375 281 190.714844 C 281.148438 190.617188 281.289062 190.53125 281.441406 190.429688 L 301.15625 180.410156 C 301.328125 201.050781 301.523438 220.761719 301.527344 220.878906 Z M 319.128906 169.515625 C 298.511719 179.996094 301.265625 178.59375 280.648438 189.074219 C 277.957031 190.878906 271.726562 194.800781 269.039062 193.015625 C 267.640625 192.082031 266.9375 189.773438 266.234375 188.1875 C 266.015625 187.691406 259.769531 174.6875 252.191406 158.851562 L 301.480469 139.414062 C 306.386719 147 311.535156 156.34375 318.027344 164.28125 C 318.839844 165.292969 319.441406 166.15625 319.679688 167.097656 C 319.921875 168.023438 319.710938 168.921875 319.128906 169.515625 Z M 319.128906 169.515625 " fill-opacity="1" fill-rule="nonzero"/></g><path fill="#000000" d="M 284.644531 129.347656 C 284.378906 129.6875 284.4375 130.179688 284.777344 130.445312 C 285.117188 130.714844 285.605469 130.652344 285.871094 130.3125 C 290.898438 123.910156 298.691406 120.066406 306.722656 120.03125 C 307.152344 120.027344 307.5 119.679688 307.496094 119.246094 C 307.496094 118.816406 307.144531 118.46875 306.71875 118.46875 C 306.714844 118.46875 306.714844 118.46875 306.714844 118.46875 C 298.210938 118.503906 289.960938 122.570312 284.644531 129.347656 Z M 284.644531 129.347656 " fill-opacity="1" fill-rule="nonzero"/><path fill="#000000" d="M 237.523438 106.796875 C 237.585938 107.222656 237.984375 107.519531 238.410156 107.457031 C 238.835938 107.394531 239.128906 106.996094 239.066406 106.570312 C 237.855469 98.21875 233.496094 90.351562 227.109375 84.992188 C 226.777344 84.714844 226.285156 84.757812 226.011719 85.089844 C 225.734375 85.417969 225.777344 85.914062 226.105469 86.1875 C 232.203125 91.308594 236.363281 98.816406 237.523438 106.796875 Z M 237.523438 106.796875 " fill-opacity="1" fill-rule="nonzero"/><path fill="#000000" d="M 283.75 149.8125 C 283.335938 149.6875 282.902344 149.917969 282.773438 150.332031 C 282.648438 150.746094 282.882812 151.183594 283.292969 151.308594 C 288.375 152.867188 292.742188 156.496094 295.265625 161.265625 C 295.40625 161.53125 295.675781 161.683594 295.957031 161.683594 C 296.539062 161.683594 296.921875 161.058594 296.644531 160.53125 C 293.925781 155.398438 289.226562 151.492188 283.75 149.8125 Z M 283.75 149.8125 " fill-opacity="1" fill-rule="nonzero"/><path fill="#000000" d="M 267.734375 114.046875 C 268.101562 114.046875 268.425781 113.785156 268.5 113.414062 C 269.632812 107.503906 272.550781 101.539062 276.941406 96.160156 C 280.585938 91.691406 285.171875 87.589844 291.375 83.246094 C 291.726562 82.996094 291.8125 82.507812 291.566406 82.15625 C 291.320312 81.800781 290.832031 81.71875 290.480469 81.960938 C 284.15625 86.390625 279.472656 90.585938 275.734375 95.167969 C 271.179688 100.746094 268.148438 106.953125 266.96875 113.117188 C 266.875 113.597656 267.242188 114.046875 267.734375 114.046875 Z M 267.734375 114.046875 " fill-opacity="1" fill-rule="nonzero"/><path fill="#000000" d="M 250.617188 105.171875 C 253.84375 111.730469 253.699219 119.546875 253.574219 126.441406 C 253.566406 126.871094 253.910156 127.230469 254.339844 127.238281 C 254.34375 127.238281 254.347656 127.238281 254.355469 127.238281 C 254.777344 127.238281 255.125 126.898438 255.132812 126.46875 C 255.261719 119.394531 255.410156 111.378906 252.019531 104.480469 C 251.089844 102.59375 250.039062 101.011719 247.113281 96.390625 C 246.882812 96.023438 246.402344 95.917969 246.039062 96.148438 C 245.675781 96.378906 245.566406 96.863281 245.796875 97.226562 C 248.546875 101.578125 249.734375 103.375 250.617188 105.171875 Z M 250.617188 105.171875 " fill-opacity="1" fill-rule="nonzero"/><path fill="#000000" d="M 197.78125 118.425781 C 197.425781 118.582031 197.25 118.96875 197.34375 119.335938 C 197.34375 119.640625 197.84375 120.089844 198.402344 119.867188 C 206.621094 116.277344 222.238281 119.617188 222.394531 119.648438 C 222.808594 119.742188 223.214844 119.480469 223.308594 119.074219 C 223.320312 119.0625 223.320312 119.050781 223.320312 119.042969 C 223.414062 118.625 223.152344 118.207031 222.726562 118.113281 C 222.609375 118.09375 222.082031 117.980469 221.21875 117.824219 C 214.433594 116.570312 204.1875 115.675781 197.78125 118.425781 Z M 197.78125 118.425781 " fill-opacity="1" fill-rule="nonzero"/><path fill="#000000" d="M 269.285156 224.035156 C 269.527344 224.035156 269.765625 223.925781 269.917969 223.714844 L 289.597656 196.519531 C 289.851562 196.171875 289.773438 195.683594 289.425781 195.429688 C 289.074219 195.175781 288.585938 195.25 288.335938 195.601562 L 268.652344 222.796875 C 268.277344 223.316406 268.65625 224.035156 269.285156 224.035156 Z M 269.285156 224.035156 " fill-opacity="1" fill-rule="nonzero"/><path fill="#000000" d="M 97.453125 287.296875 C 97.859375 286.007812 98.828125 285.535156 100.492188 284.828125 C 101.058594 284.597656 102.046875 284.0625 103.632812 283.710938 C 103.320312 283.253906 102.988281 282.804688 102.644531 282.355469 C 101.382812 282.671875 100.335938 283.203125 99.886719 283.390625 C 98.679688 283.898438 97.441406 284.429688 96.632812 285.515625 C 89.636719 275.492188 77.847656 277.863281 75.480469 286.371094 C 74.878906 288.519531 74.910156 290.425781 75.597656 292.230469 C 74.277344 291.804688 72.882812 291.425781 71.457031 291.292969 C 69.054688 291.0625 66.828125 291.605469 65.203125 292.792969 C 61.523438 295.597656 59.8125 301.953125 62.230469 307.179688 C 62.363281 307.472656 62.644531 307.640625 62.9375 307.640625 C 63.511719 307.640625 63.886719 307.039062 63.644531 306.523438 C 62.09375 303.15625 62.394531 298.996094 64.433594 295.921875 C 64.964844 295.128906 65.539062 294.503906 66.140625 294.054688 C 67.453125 293.085938 69.28125 292.65625 71.3125 292.84375 C 73.226562 293.03125 75.097656 293.691406 76.898438 294.335938 C 77.597656 294.570312 78.226562 293.789062 77.8125 293.167969 C 76.554688 291.207031 76.292969 289.238281 76.980469 286.789062 C 77.644531 284.410156 79.34375 282.378906 81.527344 281.34375 C 85.871094 279.277344 92.085938 280.914062 96.039062 287.476562 C 96.359375 288.011719 97.238281 287.972656 97.453125 287.296875 Z M 97.453125 287.296875 " fill-opacity="1" fill-rule="nonzero"/><path fill="#000000" d="M 145.964844 292.867188 C 144.554688 292.1875 143.035156 291.914062 141.734375 291.734375 C 138.375 291.269531 137.980469 291.761719 136.484375 291.945312 C 136.195312 291.980469 135.890625 292.015625 135.597656 292.113281 C 134.492188 285.449219 128.273438 280.652344 121.203125 282.25 C 122.449219 280.199219 123.835938 278.390625 125.355469 276.882812 C 131.898438 270.347656 142.753906 267.113281 144.683594 262.621094 L 144.683594 262.609375 C 145.546875 260.609375 145.058594 258 143.457031 256.144531 C 141.511719 253.871094 138.242188 252.828125 134.925781 253.425781 C 132.335938 253.882812 129.691406 255.300781 127.089844 257.625 C 119.964844 263.976562 116.367188 273.472656 113.296875 282.648438 C 113.617188 283.992188 113.789062 284.839844 113.941406 285.683594 C 114.171875 284.914062 114.332031 284.46875 114.753906 283.210938 C 117.894531 273.828125 121.277344 264.902344 128.121094 258.792969 C 130.515625 256.667969 132.894531 255.375 135.195312 254.96875 C 137.929688 254.476562 140.707031 255.34375 142.28125 257.167969 C 143.488281 258.585938 143.882812 260.523438 143.257812 261.996094 C 142.707031 263.265625 141.480469 264.164062 140.367188 264.914062 C 131.964844 270.507812 124.664062 272.554688 119.039062 282.855469 C 117.195312 283.597656 115.0625 285.144531 114.160156 287.089844 C 114.179688 287.238281 114.199219 287.386719 114.214844 287.53125 C 114.03125 288.042969 113.921875 288.570312 113.902344 289.117188 C 110.988281 287.128906 108.90625 286.839844 105.910156 287.707031 C 98.492188 289.828125 94.84375 298.21875 96.683594 302.074219 C 96.730469 302.167969 96.796875 302.253906 96.871094 302.320312 C 97.503906 302.882812 98.464844 302.167969 98.097656 301.394531 C 96.675781 298.433594 99.875 290.882812 106.671875 289.113281 C 107.4375 288.882812 108.609375 288.734375 109.488281 288.851562 C 109.726562 288.886719 110.066406 288.960938 110.421875 289.070312 C 111.023438 289.257812 111.339844 289.433594 111.550781 289.53125 C 111.765625 289.886719 111.648438 289.507812 114.203125 291.425781 C 114.335938 291.53125 114.503906 291.582031 114.671875 291.582031 C 114.710938 291.582031 114.746094 291.570312 114.785156 291.566406 C 115.371094 291.644531 115.785156 291.105469 115.636719 290.585938 C 114.972656 288.238281 116.132812 286.246094 119.09375 284.660156 C 122.019531 283.078125 126.039062 283.074219 129.125 284.941406 C 132.136719 286.773438 134.128906 290.265625 134.195312 293.839844 C 134.210938 294.699219 135.414062 294.898438 135.710938 294.09375 C 135.890625 293.589844 135.964844 293.582031 136.671875 293.496094 C 138.34375 293.292969 138.464844 292.859375 141.523438 293.285156 C 142.703125 293.445312 144.070312 293.691406 145.289062 294.277344 C 149.871094 296.496094 150.917969 302.75 147.296875 306.410156 C 146.992188 306.714844 146.996094 307.210938 147.300781 307.515625 C 147.605469 307.816406 148.101562 307.820312 148.40625 307.511719 C 150.433594 305.460938 151.394531 302.40625 150.917969 299.546875 C 150.445312 296.679688 148.550781 294.121094 145.964844 292.867188 Z M 145.964844 292.867188 " fill-opacity="1" fill-rule="nonzero"/><path fill="#000000" d="M 120.929688 277.003906 C 122.980469 271.867188 127.3125 267.921875 131.136719 264.445312 C 131.957031 263.699219 132.804688 262.925781 133.785156 262.570312 C 134.191406 262.421875 134.402344 261.976562 134.253906 261.570312 C 134.109375 261.164062 133.660156 260.953125 133.253906 261.101562 C 131.980469 261.5625 130.976562 262.476562 130.085938 263.285156 C 126.140625 266.878906 121.664062 270.953125 119.480469 276.421875 C 119.320312 276.820312 119.515625 277.277344 119.914062 277.4375 C 120.308594 277.597656 120.765625 277.40625 120.929688 277.003906 Z M 120.929688 277.003906 " fill-opacity="1" fill-rule="nonzero"/><path fill="#000000" d="M 106.539062 280.066406 C 106.667969 280.472656 107.105469 280.703125 107.519531 280.570312 C 107.929688 280.4375 108.15625 280 108.023438 279.585938 C 105.875 272.90625 100.867188 267.933594 95.480469 263.011719 C 95.160156 262.722656 94.667969 262.746094 94.378906 263.0625 C 94.085938 263.382812 94.109375 263.878906 94.429688 264.167969 C 99.652344 268.941406 104.507812 273.75 106.539062 280.066406 Z M 106.539062 280.066406 " fill-opacity="1" fill-rule="nonzero"/><g clip-path="url(#d7352b647b)"><g clip-path="url(#12e32a5f36)"><path fill="#047aff" d="M 201.40625 121.378906 L 219.984375 121.378906 L 219.984375 139.957031 L 201.40625 139.957031 Z M 201.40625 121.378906 " fill-opacity="1" fill-rule="nonzero"/></g></g></svg>